<svg xmlns="http://www.w3.org/2000/svg" viewBox="0 0 115.87 29.67" fill="none">
  <path d="M7.49 12.35 C11.70 12.35 14.36 14.36 14.36 17.87 L14.36 18.20 L10.45 18.20 L10.45 17.84 C10.45 15.80 9.07 15.25 7.49 15.25 L7.10 15.25 C5.49 15.25 4.21 15.77 4.21 17.25 C4.21 18.63 5.39 19.06 8.35 19.62 C12.81 20.50 14.52 21.98 14.52 24.61 L14.52 24.84 C14.52 27.93 11.83 29.67 7.52 29.67 L7.13 29.67 C2.89 29.67 0.00 27.96 0.00 24.08 L0.00 23.85 L3.91 23.85 L3.91 24.18 C3.91 26.09 5.29 26.75 7.13 26.75 L7.52 26.75 C9.60 26.75 10.58 26.12 10.58 24.91 C10.58 23.53 9.50 23.03 6.38 22.41 C2.56 21.75 0.26 20.54 0.26 17.51 L0.26 17.25 C0.26 14.36 2.89 12.35 7.10 12.35 L7.49 12.35 Z M21.06 19.19 L29.34 19.19 C29.24 16.72 27.67 15.41 25.37 15.41 L24.97 15.41 C22.57 15.41 21.16 16.69 21.06 19.19 M25.40 12.35 C29.93 12.35 33.25 14.85 33.25 19.91 L33.25 22.11 L21.06 22.11 L21.06 22.34 C21.06 25.23 22.54 26.61 25.00 26.61 L25.40 26.61 C27.76 26.61 28.95 25.63 29.34 23.98 L33.05 23.98 C32.66 27.53 30.03 29.67 25.40 29.67 L25.00 29.67 C20.50 29.67 17.15 27.20 17.15 22.18 L17.15 19.91 C17.15 14.85 20.50 12.35 25.00 12.35 L25.40 12.35 Z M39.10 12.68 L43.31 25.00 L44.10 25.00 L48.24 12.68 L51.95 12.68 L46.33 29.34 L40.68 29.34 L34.99 12.68 L39.10 12.68 Z M57.27 19.19 L65.55 19.19 C65.45 16.72 63.88 15.41 61.58 15.41 L61.18 15.41 C58.78 15.41 57.37 16.69 57.27 19.19 M61.61 12.35 C66.14 12.35 69.46 14.85 69.46 19.91 L69.46 22.11 L57.27 22.11 L57.27 22.34 C57.27 25.23 58.75 26.61 61.21 26.61 L61.61 26.61 C63.97 26.61 65.16 25.63 65.55 23.98 L69.26 23.98 C68.87 27.53 66.24 29.67 61.61 29.67 L61.21 29.67 C56.71 29.67 53.36 27.20 53.36 22.18 L53.36 19.91 C53.36 14.85 56.71 12.35 61.21 12.35 L61.61 12.35 Z M76.99 12.68 L76.99 14.69 L77.64 14.69 C78.60 13.21 80.24 12.35 82.31 12.35 L82.70 12.35 C85.96 12.35 88.29 14.39 88.29 18.93 L88.29 29.34 L84.25 29.34 L84.25 19.65 C84.25 17.08 82.97 15.84 80.83 15.84 L80.44 15.84 C78.27 15.84 76.99 17.08 76.99 19.65 L76.99 29.34 L72.94 29.34 L72.94 12.68 L76.99 12.68 Z M96.73 7.98 L96.73 12.68 L103.99 12.68 L103.99 15.80 L96.73 15.80 L96.73 24.15 C96.73 25.66 97.45 26.48 98.80 26.48 L99.20 26.48 C100.54 26.48 101.20 25.66 101.20 24.15 L101.20 22.47 L104.82 22.47 L104.82 24.15 C104.82 28.09 102.48 29.67 99.16 29.67 L98.77 29.67 C95.38 29.67 92.72 28.09 92.72 24.15 L92.72 15.80 L90.39 15.80 L90.39 12.68 L92.72 12.68 L92.72 7.98 L96.73 7.98 Z M107.84 12.68 L111.88 12.68 L111.88 29.34 L107.84 29.34 Z Z" fill="currentColor"/>
  <path d="M109.95 0.04 C109.92 0.17 109.90 0.30 109.88 0.43 L109.88 0.43 C109.74 1.48 109.54 2.52 109.09 3.49 L109.09 3.49 C108.82 4.08 108.40 4.53 107.80 4.77 L107.80 4.77 C107.31 4.97 106.81 5.15 106.30 5.27 L106.30 5.27 C105.61 5.44 104.89 5.54 104.13 5.68 L104.13 5.68 C104.52 5.74 104.85 5.79 105.17 5.84 L105.17 5.84 C106.05 5.98 106.92 6.17 107.73 6.53 L107.73 6.53 C108.37 6.81 108.86 7.24 109.10 7.89 L109.10 7.89 C109.31 8.45 109.50 9.03 109.65 9.61 L109.65 9.61 C109.79 10.17 109.86 10.75 109.96 11.32 L109.96 11.32 C109.99 11.32 110.02 11.32 110.05 11.32 L110.05 11.32 C110.07 11.18 110.09 11.03 110.11 10.88 L110.11 10.88 C110.25 9.83 110.45 8.80 110.90 7.83 L110.90 7.83 C111.17 7.25 111.57 6.82 112.16 6.58 L112.16 6.58 C112.65 6.38 113.14 6.20 113.66 6.07 L113.66 6.07 C114.36 5.90 115.08 5.80 115.87 5.65 L115.87 5.65 C115.68 5.62 115.57 5.61 115.46 5.60 L115.46 5.60 C114.48 5.46 113.52 5.28 112.59 4.96 L112.59 4.96 C111.65 4.62 111.01 4.01 110.71 3.06 L110.71 3.06 C110.52 2.44 110.36 1.79 110.22 1.15 L110.22 1.15 C110.13 0.78 110.09 0.39 110.03 0.00 L110.03 0.00 C109.97 0.03 109.95 0.03 109.95 0.04 Z" fill="currentColor"/>
</svg>
